<svg width="24" height="24" viewBox="0 0 24 24" fill="none" xmlns="http://www.w3.org/2000/svg">
<path fill-rule="evenodd" clip-rule="evenodd" d="M11.5 8.5C11.5 9.396 11.163 10.214 10.609 10.833C11.3866 11.3861 11.9682 12.1721 12.2699 13.0773C12.5716 13.9826 12.5777 14.9604 12.2873 15.8694C11.9969 16.7784 11.4251 17.5715 10.6545 18.1342C9.88382 18.697 8.95424 19.0002 8 19H3.5C3.10218 19 2.72064 18.842 2.43934 18.5607C2.15804 18.2794 2 17.8978 2 17.5V5.5C2 5.10218 2.15804 4.72064 2.43934 4.43934C2.72064 4.15804 3.10218 4 3.5 4H7.5C8.56087 4 9.57828 4.42143 10.3284 5.17157C11.0786 5.92172 11.5 6.93913 11.5 8V8.5ZM4 10V6H7.5C8.03043 6 8.53914 6.21071 8.91421 6.58579C9.28929 6.96086 9.5 7.46957 9.5 8V8.5C9.5 8.89782 9.34196 9.27936 9.06066 9.56066C8.77936 9.84196 8.39782 10 8 10H4ZM4 12H8C8.66304 12 9.29893 12.2634 9.76777 12.7322C10.2366 13.2011 10.5 13.837 10.5 14.5C10.5 15.163 10.2366 15.7989 9.76777 16.2678C9.29893 16.7366 8.66304 17 8 17H4V12Z" fill="#053EFF"/>
<path d="M15 6C15 5.73478 15.1054 5.48043 15.2929 5.29289C15.4804 5.10536 15.7348 5 16 5H19.5C19.7652 5 20.0196 5.10536 20.2071 5.29289C20.3946 5.48043 20.5 5.73478 20.5 6C20.5 6.26522 20.3946 6.51957 20.2071 6.70711C20.0196 6.89464 19.7652 7 19.5 7H16C15.7348 7 15.4804 6.89464 15.2929 6.70711C15.1054 6.51957 15 6.26522 15 6Z" fill="#053EFF"/>
<path fill-rule="evenodd" clip-rule="evenodd" d="M17.75 8C14.909 8 12.5 10.182 12.5 13V14C12.5 16.818 14.909 19 17.75 19C19.265 19 20.362 18.564 21.097 18.09C21.539 17.806 21.886 17.46 22.22 17.062C22.3653 16.8437 22.4191 16.5771 22.3698 16.3196C22.3204 16.0621 22.1719 15.8342 21.9562 15.6852C21.7405 15.5361 21.4749 15.4777 21.2165 15.5225C20.9582 15.5674 20.7278 15.7119 20.575 15.925C20.4163 16.1161 20.2271 16.2797 20.015 16.409C19.584 16.686 18.859 17 17.75 17C15.897 17 14.5 15.6 14.5 14H22C22.2652 14 22.5196 13.8946 22.7071 13.7071C22.8946 13.5196 23 13.2652 23 13C23 10.182 20.591 8 17.75 8ZM20.813 12C20.373 10.859 19.201 10 17.75 10C16.299 10 15.127 10.859 14.687 12H20.813Z" fill="#053EFF"/>
</svg>
