<svg width="277" height="46" viewBox="0 0 277 46" fill="none" xmlns="http://www.w3.org/2000/svg">
<path d="M125 24L122.5 24L122.5 26.5H125C129.539 26.5 133.767 25.3458 136.939 23.3475C140.078 21.3698 142.5 18.3231 142.5 14.5503C142.5 11.0844 140.787 7.76878 137.666 5.5107C134.555 3.25952 130.166 2.12672 124.776 2.61059L122.5 2.81495L122.5 5.10056L125 5.10057L122.5 5.10061V5.10075V5.10133V5.10365V5.11286L122.5 5.14935L122.5 5.29255L122.5 5.84317L122.5 7.86832L122.5 14.5503L122.5 21.2323L122.5 23.2574L122.5 23.808L122.5 23.9512L122.5 23.9877V23.9969V23.9992V23.9998V24L125 24Z" stroke="white" stroke-opacity="0.15" stroke-width="5"/>
<path opacity="0.6" fill-rule="evenodd" clip-rule="evenodd" d="M134.184 19.5492C136.981 17.8418 137.887 16.002 137.887 14.6621C137.887 14.0107 137.605 12.9244 136.773 11.592C135.967 10.3 134.783 9.00848 133.363 7.97335C131.2 6.397 128.86 5.6371 126.649 5.91957V6.4837L126.649 14.6621L126.649 22.0976C129.652 21.6605 132.243 20.7337 134.184 19.5492ZM131.57 24.9155C130.127 25.3764 128.576 25.7272 126.945 25.9498C126.85 26.5621 126.744 27.2743 126.649 28.1024C126.484 29.5294 126.35 31.3007 126.35 33.4997C126.35 34.8612 126.461 36.0674 126.649 37.1361C126.971 38.9751 127.519 40.4066 128.112 41.5203C128.226 41.7353 128.342 41.9385 128.459 42.1305C129.118 43.2176 129.79 43.9454 130.239 44.4312C130.598 44.8211 130.814 45.0551 130.765 45.1937C130.69 45.4018 130.017 45.3952 128.334 45.3787C127.925 45.3747 127.457 45.3701 126.923 45.3679L126.649 45.367C126.44 45.3664 126.221 45.3663 125.993 45.3668C125.086 45.3686 124.026 45.3791 122.793 45.4083V41.5513L122.793 37.4552V33.4997V27.8857L122.793 26.2282V26.0463V22.3722V22.1903L122.793 14.6621L122.793 3.09608C131.769 -1.24118 141.743 8.27438 141.743 14.6621C141.743 18.1358 139.234 21.2518 135.262 23.3719C135.54 23.7595 135.844 24.2595 136.217 24.8851C136.288 25.0054 136.363 25.1304 136.439 25.2601C137.492 27.034 139.071 29.6949 141.935 33.4845C143.185 35.1392 144.36 36.5773 145.439 37.8268C147.217 39.8862 148.731 41.4334 149.885 42.5935L149.955 42.6643C150.06 42.7697 150.162 42.8718 150.261 42.9707C151.737 44.4511 152.507 45.224 152.317 45.6172C152.119 46.0281 150.872 46.0244 148.285 45.9802L148.167 45.9782L147.982 45.975L147.925 45.974C146.778 45.9541 145.39 45.93 143.738 45.93C143.738 45.93 143.731 44.8947 143.27 43.1709C142.976 42.0704 142.498 40.6893 141.718 39.1179C141.046 37.7655 140.152 36.272 138.96 34.6951L132.694 26.4027L132.508 26.1569L131.57 24.9155Z" fill="white"/>
<path d="M79.5827 44.8181H73.9868L90.172 2H95.6818L111.867 44.8181H106.271L93.0991 8.77395H92.7547L79.5827 44.8181ZM81.6489 28.0923H104.205V32.6919H81.6489V28.0923Z" fill="white"/>
<path d="M44 44.8189V2.00081H58.8938C62.3374 2.00081 65.1641 2.57227 67.3738 3.7152C69.5834 4.84419 71.2192 6.3983 72.281 8.37752C73.3428 10.3567 73.8737 12.6078 73.8737 15.1306C73.8737 17.6534 73.3428 19.8905 72.281 21.8418C71.2192 23.7931 69.5906 25.3263 67.3953 26.4414C65.2 27.5425 62.3948 28.0931 58.9799 28.0931H46.9271V23.4098H58.8077C61.1608 23.4098 63.0549 23.0753 64.4897 22.4063C65.9389 21.7373 66.9864 20.7895 67.632 19.5629C68.2921 18.3224 68.6221 16.845 68.6221 15.1306C68.6221 13.4162 68.2921 11.9178 67.632 10.6355C66.972 9.3532 65.9174 8.36358 64.4682 7.66668C63.019 6.95583 61.1035 6.60041 58.7216 6.60041H49.3377V44.8189H44Z" fill="white"/>
<path d="M187.744 2.00085V8.0581H173.16V26.4385V44.8189H167.176V8.0581H152.714V2.00085H187.744Z" fill="white"/>
<path fill-rule="evenodd" clip-rule="evenodd" d="M204.079 2.00096V8.05821V19.5815L213.177 19.5815L219.161 19.5814L228.016 19.5815V8.05821V2.00096H234V8.05821V26.4386V44.819H228.016V25.6387L204.079 25.6387V26.4386V44.819H198.094V8.05821L198.094 2.00096H204.079Z" fill="white"/>
</svg>
