<svg width="125" height="25" viewBox="0 0 125 25" fill="none" xmlns="http://www.w3.org/2000/svg">
<path d="M55 13.0757L52.5 13.0757L52.5 15.5757H55C57.0657 15.5757 59.0467 15.0106 60.5818 13.9665C62.1038 12.9313 63.4055 11.2409 63.4055 9.05911C63.4055 7.17234 62.5396 5.35037 60.9487 4.1076C59.3553 2.86286 57.2043 2.31715 54.7588 2.55416L52.5 2.77309L52.5 5.04249L55 5.0425L52.5 5.04251V5.04257V5.04282V5.0438V5.04772L52.5 5.06323L52.5 5.1241L52.5 5.35814L52.5 6.21893L52.5 9.05911L52.5 11.8993L52.5 12.7601L52.5 12.9941L52.5 13.055L52.5 13.0705V13.0744V13.0754V13.0756V13.0757L55 13.0757Z" stroke="white" stroke-opacity="0.15" stroke-width="5"/>
<path opacity="0.6" fill-rule="evenodd" clip-rule="evenodd" d="M60.5179 8.92349C60.5181 8.92353 60.5167 8.92631 60.5135 8.93169C60.5161 8.92614 60.5178 8.92345 60.5179 8.92349ZM60.2147 9.23124L60.2073 9.22219C59.8483 8.78508 59.2393 8.25676 58.4171 7.80132C57.5506 7.32137 56.6174 7.00897 55.6934 6.90033L55.6934 9.33081L55.6934 10.9237C57.0189 10.6827 58.1529 10.3292 59.0304 9.92212C59.6305 9.64379 59.9961 9.40529 60.2147 9.23124ZM55.6934 14.832C55.3258 14.8874 54.9507 14.9351 54.569 14.9747C54.3986 15.8085 54.1776 17.0122 54.1776 18.7498C54.1776 19.5432 54.2772 20.2312 54.4395 20.8277C54.5124 21.0958 54.598 21.3455 54.6929 21.5779C54.9737 22.2652 55.336 22.8019 55.6934 23.2208C56.0847 23.6794 56.4701 23.9967 56.736 24.2157C56.9645 24.4039 57.1048 24.5194 57.0849 24.5895C57.0553 24.694 56.6707 24.6979 55.6934 24.691L55.4833 24.6895C54.9181 24.6853 54.1798 24.6798 53.2323 24.6866C52.8541 24.6893 52.4425 24.694 51.9953 24.7015L51.8374 24.7043L51.8374 24.4511L51.8374 20.8477L51.8374 18.7498L51.8374 16.0472L51.8374 15.1139V11.2579L51.8374 9.33081L51.8374 3.54768C57.7429 1.37902 64.3046 6.13688 64.3046 9.33081C64.3046 11.0677 62.654 12.6257 60.0407 13.6858C60.2588 13.9168 60.5016 14.2278 60.8155 14.6299C61.508 15.5169 62.5466 16.8474 64.4307 18.7422C65.7978 20.1171 67.0285 21.1929 68.057 22.0339C68.13 22.0935 68.2019 22.152 68.2727 22.2093C68.7872 22.6252 69.2469 22.9801 69.6428 23.2827C69.7349 23.3531 69.8234 23.4206 69.9085 23.4854C70.8507 24.2037 71.3559 24.5888 71.2709 24.7907C71.2101 24.9348 70.8483 24.9855 70.1296 24.9972C69.6847 25.0044 69.1029 24.9967 68.3712 24.9871C67.9491 24.9815 67.4771 24.9753 66.9526 24.9709C66.8385 24.9699 66.7219 24.969 66.6027 24.9683C66.2914 24.9663 65.963 24.9651 65.6169 24.9651C65.6169 24.9651 65.6141 24.6443 65.4653 24.0875C65.3275 23.5723 65.0648 22.8551 64.5634 22.0028C64.1003 21.2154 63.4336 20.3127 62.4739 19.3475L59.5405 16.3974L59.1814 16.0363L57.6117 14.4576C57.0003 14.6061 56.3592 14.7317 55.6934 14.832Z" fill="white"/>
<path d="M23.4098 24.4091H19.7283L30.3764 2.99976H34.0013L44.6494 24.4091H40.9679L32.3021 6.38679H32.0756L23.4098 24.4091ZM24.7691 16.0461H39.6085V18.3459H24.7691V16.0461Z" fill="white"/>
<path d="M0 24.4094V3H9.79854C12.0641 3 13.9237 3.28574 15.3775 3.85721C16.8312 4.42172 17.9074 5.19878 18.6059 6.18841C19.3044 7.17803 19.6537 8.30356 19.6537 9.56498C19.6537 10.8264 19.3044 11.945 18.6059 12.9207C17.9074 13.8963 16.8359 14.663 15.3916 15.2205C13.9473 15.7711 12.1019 16.0463 9.85518 16.0463H1.92573V13.7047H9.7419C11.29 13.7047 12.5361 13.5374 13.4801 13.2029C14.4335 12.8684 15.1226 12.3945 15.5474 11.7812C15.9816 11.1609 16.1987 10.4222 16.1987 9.56498C16.1987 8.70777 15.9816 7.95858 15.5474 7.31742C15.1132 6.67625 14.4193 6.18144 13.4659 5.83298C12.5125 5.47755 11.2523 5.29984 9.68526 5.29984H3.51161V24.4094H0Z" fill="white"/>
<path d="M94.5681 3V6.02867H84.9737V15.219V24.4094H81.0367V6.02867H71.5222V3H94.5681Z" fill="white"/>
<path fill-rule="evenodd" clip-rule="evenodd" d="M125 3L125 6.02867L125 15.219V24.4094H121.063V14.8192L105.315 14.8192V15.219V24.4094H101.378V6.02869L101.378 3.00002H105.315V6.02869V11.7905L111.3 11.7905L115.237 11.7904L121.063 11.7905V6.02867V3H125Z" fill="white"/>
</svg>
