<svg width="24" height="25" viewBox="0 0 24 25" fill="none" xmlns="http://www.w3.org/2000/svg">
<path fill-rule="evenodd" clip-rule="evenodd" d="M9.207 15.293C11.525 17.611 13.678 18.903 15.28 19.621C16.679 20.248 18.33 19.756 19.617 18.469L19.911 18.174L16.375 15.924C15.703 16.904 14.432 17.479 13.163 16.944C12.202 16.538 10.93 15.844 9.793 14.707C8.656 13.57 7.963 12.298 7.557 11.337C7.021 10.068 7.595 8.797 8.576 8.125L6.326 4.589L6.031 4.883C4.744 6.17 4.253 7.821 4.879 9.22C5.597 10.822 6.889 12.975 9.207 15.293ZM14.463 21.446C12.648 20.633 10.291 19.205 7.793 16.707C5.295 14.21 3.867 11.852 3.053 10.037C1.978 7.637 2.96 5.127 4.617 3.469L4.911 3.174C5.12275 2.96212 5.37938 2.80051 5.66195 2.7011C5.94453 2.60169 6.24582 2.56702 6.54359 2.59966C6.84135 2.6323 7.12799 2.7314 7.38232 2.88966C7.63665 3.04792 7.85218 3.26128 8.013 3.514L10.843 7.964C10.918 8.08204 10.9673 8.21449 10.9879 8.3528C11.0085 8.4911 10.9999 8.63218 10.9626 8.76694C10.9252 8.9017 10.8601 9.02713 10.7713 9.13514C10.6825 9.24315 10.572 9.33134 10.447 9.394L9.814 9.711C9.382 9.927 9.294 10.308 9.399 10.559C9.738 11.362 10.305 12.39 11.207 13.293C12.11 14.195 13.138 14.762 13.941 15.101C14.192 15.207 14.573 15.118 14.789 14.686L15.106 14.053C15.1686 13.9279 15.2567 13.8174 15.3647 13.7285C15.4726 13.6395 15.5981 13.5743 15.7328 13.5369C15.8676 13.4995 16.0087 13.4907 16.147 13.5112C16.2854 13.5318 16.4179 13.5811 16.536 13.656L20.986 16.487C21.2387 16.6478 21.4521 16.8634 21.6103 17.1177C21.7686 17.372 21.8677 17.6587 21.9003 17.9564C21.933 18.2542 21.8983 18.5555 21.7989 18.8381C21.6995 19.1206 21.5379 19.3773 21.326 19.589L21.031 19.883C19.374 21.541 16.864 22.522 14.463 21.446Z" fill="#FF9142"/>
</svg>
