<svg width="24" height="24" viewBox="0 0 24 24" fill="none" xmlns="http://www.w3.org/2000/svg">
<path fill-rule="evenodd" clip-rule="evenodd" d="M14.8489 5.658C14.3921 5.65781 13.9409 5.75905 13.5279 5.95442C13.115 6.14978 12.7506 6.4344 12.4609 6.78772C12.1713 7.14104 11.9638 7.55425 11.8533 7.99752C11.7428 8.4408 11.7321 8.90308 11.8219 9.351C11.8529 9.5062 11.8465 9.66652 11.8035 9.81879C11.7604 9.97107 11.6817 10.1109 11.5741 10.2269C11.4664 10.3429 11.3327 10.4316 11.1841 10.4859C11.0354 10.5402 10.876 10.5584 10.7189 10.539C8.56867 10.2749 6.54166 9.39095 4.88494 7.995C4.91594 8.597 5.12494 9.237 5.57794 9.907L6.25694 10.911L5.14194 11.386L4.92694 11.478C5.08694 11.661 5.27894 11.848 5.49394 12.033C5.78135 12.279 6.08541 12.5049 6.40394 12.709L6.41494 12.716H6.41594L7.96394 13.655L6.34394 14.465C6.26394 14.505 6.18394 14.541 6.10394 14.573C6.45228 14.8624 6.83602 15.1064 7.24594 15.299L8.63594 15.956L7.47194 16.96C6.83694 17.508 6.19794 17.917 5.36894 18.133C6.64037 18.8102 8.05938 19.163 9.49994 19.16C14.3059 19.16 18.1759 15.325 18.1759 10.626V10.106L18.6009 9.807C19.2649 9.341 19.7339 8.711 20.0699 7.99H17.9099L17.6379 7.42C17.3875 6.89267 16.9926 6.4472 16.4991 6.13531C16.0056 5.82342 15.4337 5.65791 14.8499 5.658H14.8489ZM3.56894 12.958C3.47457 13.0661 3.40457 13.1932 3.36367 13.3307C3.32278 13.4682 3.31196 13.6129 3.33194 13.755C3.44494 14.556 3.92394 15.246 4.45394 15.773C4.59794 15.916 4.75194 16.053 4.91394 16.184L4.83894 16.204C4.35794 16.324 3.70894 16.349 2.62794 16.244C2.4238 16.224 2.21843 16.2672 2.03969 16.3678C1.86095 16.4685 1.71748 16.6216 1.62873 16.8065C1.53997 16.9915 1.51024 17.1992 1.54355 17.4016C1.57686 17.604 1.6716 17.7913 1.81494 17.938C2.81571 18.9609 4.01123 19.773 5.33096 20.3264C6.65069 20.8798 8.06789 21.1632 9.49894 21.16C15.2119 21.16 19.8979 16.724 20.1629 11.126C21.4529 10.043 22.0979 8.576 22.4459 7.243C22.4846 7.09505 22.4889 6.9402 22.4583 6.79035C22.4278 6.64051 22.3633 6.49966 22.2698 6.37864C22.1763 6.25762 22.0563 6.15966 21.9191 6.09229C21.7818 6.02491 21.6309 5.98992 21.4779 5.99H19.1249C18.5494 5.09632 17.7083 4.40544 16.7198 4.01443C15.7314 3.62342 14.6453 3.55195 13.6141 3.81004C12.5829 4.06814 11.6585 4.64284 10.9708 5.45338C10.2831 6.26392 9.86664 7.26956 9.77994 8.329C7.93659 7.84915 6.28727 6.8098 5.05894 5.354C4.95016 5.22538 4.81065 5.12633 4.65336 5.06603C4.49607 5.00573 4.32609 4.98615 4.15921 5.00909C3.99233 5.03203 3.83395 5.09676 3.69876 5.19726C3.56358 5.29777 3.45598 5.4308 3.38594 5.584C2.77994 6.906 2.66394 8.43 3.33994 9.98L3.10594 10.08C2.88201 10.1754 2.70058 10.3492 2.59564 10.5689C2.49071 10.7885 2.46948 11.0388 2.53594 11.273C2.72194 11.925 3.13994 12.501 3.56794 12.958H3.56894Z" fill="#00ACEE"/>
</svg>
