<svg width="24" height="25" viewBox="0 0 24 25" fill="none" xmlns="http://www.w3.org/2000/svg">
<path fill-rule="evenodd" clip-rule="evenodd" d="M3.49993 12.5C3.49993 10.8189 3.99845 9.17547 4.93244 7.77765C5.86643 6.37984 7.19395 5.29037 8.74712 4.64702C10.3003 4.00368 12.0094 3.83535 13.6582 4.16333C15.307 4.4913 16.8216 5.30085 18.0103 6.48959C19.1991 7.67834 20.0086 9.19289 20.3366 10.8417C20.6646 12.4906 20.4963 14.1996 19.8529 15.7528C19.2096 17.306 18.1201 18.6335 16.7223 19.5675C15.3245 20.5015 13.6811 21 11.9999 21C10.3918 21.0029 8.81616 20.547 7.45793 19.686C7.33711 19.6096 7.20131 19.5599 7.05969 19.5404C6.91806 19.521 6.7739 19.5321 6.63693 19.573L3.75693 20.432L4.84193 17.895C4.90499 17.7473 4.93156 17.5866 4.91937 17.4264C4.90719 17.2663 4.85662 17.1115 4.77193 16.975C3.93786 15.6316 3.49718 14.0813 3.49993 12.5ZM11.9999 2C6.20093 2 1.49993 6.701 1.49993 12.5C1.49993 14.338 1.97293 16.068 2.80493 17.573L1.07993 21.607C1.00527 21.7817 0.981943 21.9741 1.01268 22.1617C1.04343 22.3492 1.12696 22.5241 1.25351 22.6658C1.38005 22.8076 1.54437 22.9104 1.72721 22.9621C1.91006 23.0139 2.10386 23.0124 2.28593 22.958L6.78593 21.616C8.37295 22.5255 10.1708 23.0027 11.9999 23C17.7989 23 22.4999 18.299 22.4999 12.5C22.4999 6.701 17.7989 2 11.9999 2ZM14.2929 14.682L12.9779 15.608C12.2534 15.1912 11.5881 14.6789 10.9999 14.085C10.3685 13.4544 9.82247 12.7437 9.37593 11.971L10.2109 11.262C10.3849 11.1144 10.5032 10.9117 10.5461 10.6876C10.589 10.4635 10.554 10.2315 10.4469 10.03L9.38293 8.03C9.31212 7.89718 9.21225 7.78205 9.09075 7.6932C8.96925 7.60436 8.82926 7.54408 8.68122 7.51688C8.53318 7.48967 8.38091 7.49624 8.23576 7.53608C8.09061 7.57593 7.95633 7.64803 7.84293 7.747L7.52693 8.022C6.76793 8.684 6.31893 9.772 6.69093 10.874C7.28943 12.6171 8.27983 14.1997 9.58593 15.5C11.3989 17.313 13.2409 18.027 14.3189 18.305C15.1869 18.528 16.0079 18.229 16.5869 17.757L17.1779 17.275C17.3025 17.1734 17.4008 17.0432 17.4644 16.8956C17.528 16.7479 17.5551 16.5871 17.5433 16.4268C17.5315 16.2664 17.4812 16.1113 17.3967 15.9745C17.3123 15.8377 17.196 15.7233 17.0579 15.641L15.3799 14.641C15.214 14.542 15.0229 14.4932 14.8299 14.5004C14.6368 14.5077 14.4499 14.5708 14.2919 14.682H14.2929Z" fill="#25D366"/>
</svg>
